<svg xmlns="http://www.w3.org/2000/svg" viewBox="0 0 64 64" role="img" aria-label="Cirvo favicon alternate 3 v2">
  <rect width="64" height="64" rx="14" fill="#111827" />
  <rect x="1.5" y="1.5" width="61" height="61" rx="12.5" fill="none" stroke="#374151" stroke-width="3" />
  <path
    d="M34 17.5c-8 0-14.5 6.5-14.5 14.5S26 46.5 34 46.5c4.6 0 8.9-2.1 11.6-5.8l-5-3.8a8.3 8.3 0 0 1-6.6 3.3 8.2 8.2 0 1 1 0-16.4 8.3 8.3 0 0 1 6.6 3.3l5-3.8A14.4 14.4 0 0 0 34 17.5Z"
    fill="#FFFFFF"
  />
  <circle cx="47.5" cy="19.8" r="3.2" fill="#FFFFFF" />
</svg>
